# xmcd
#
# Track frame offsets: 
#        150
#        11826
#        25128
#        37430
#        49320
#        59627
#        72211
#        84676
#        96628
#        110273
#        123821
#        134700
#        145360
#        159954
#        174628
#        184045
#        197693
#        215806
#        233911
#        245368
#        259071
#        272944
#        283162
#        295221
#        309031
#        320364
#
# Disc length: 4400 seconds
#
# Revision: 1
# Processed by: cddbd v1.5.2PL0 Copyright (c) Steve Scherf et al.
# Submitted via: ExactAudioCopy v0.99pb4
#
DISCID=99112e1a
DTITLE=Various Artist - Shuckin' Stuff: Rare Blues From Ace Records [CD2]
DYEAR=2002
DGENRE=Blues
TTITLE0=Sammy Myers - My Love Is Here To Stay (alternate take)
TTITLE1=Sammy Myers - Sleeping In The Ground (alternate take)
TTITLE2=Alabama Red - Every Day I Have The Blues
TTITLE3=Unknown Male Singer #1 - I've Been Searchin'
TTITLE4=Edgar Blanchard - Honeycomb
TTITLE5=Unknown Male Singer #1 - I'll Never Leave Anymore
TTITLE6=Little Cameron - Annie Mae (alternate take)
TTITLE7=Albert Scott - I'm Leaving You Baby
TTITLE8=Unknown Male Singer #1 - Every Night About This Time
TTITLE9=Unknown Male Singer #3 - Standing At The Station
TTITLE10=H-Bomb Ferguson - Baby Please
TTITLE11=Johnny Littlejohn - Hideaway
TTITLE12=Unknown Female Singer - Take Me Back Baby
TTITLE13=Unknown Male Singer #1 - Three Long Years
TTITLE14=Sammy Myers - My Love Is Here To Stay
TTITLE15=Sammy Myers - Sleeping In The Ground
TTITLE16=Alabama Red - Driving Wheel (+ Message)
TTITLE17=Bad Smitty - Standing At The Crossroads (alternate take)
TTITLE18=Edgar Blanchard - Lonesome Guitar (alternative take)
TTITLE19=Billy Tate - Lifetime In Prison Pt. 1
TTITLE20=Billy Tate - Lifetime In Prison Pt. 2
TTITLE21=Little Cameron - Sittin' Here Worryin' (alternate take)
TTITLE22=Unknown Male Singer # 2 - Little Boy Blue
TTITLE23=Unknown Male Singer # 3 - Pathway Of Love
TTITLE24=Albert Scott - Right At Home
TTITLE25=Unknown Male Singer #1 - Whiskey And Women
EXTD=
EXTT0=
EXTT1=
EXTT2=
EXTT3=
EXTT4=
EXTT5=
EXTT6=
EXTT7=
EXTT8=
EXTT9=
EXTT10=
EXTT11=
EXTT12=
EXTT13=
EXTT14=
EXTT15=
EXTT16=
EXTT17=
EXTT18=
EXTT19=
EXTT20=
EXTT21=
EXTT22=
EXTT23=
EXTT24=
EXTT25=
PLAYORDER=
